<svg width="257" height="44" viewBox="0 0 257 44" fill="none" xmlns="http://www.w3.org/2000/svg">
<path d="M158.667 30.4545L163.47 15.9288H163.66L168.453 30.4545H172.13L165.624 12H161.497L155 30.4545H158.667Z" fill="#6C6C6C"/>
<path d="M176.398 25.892L176.389 22.1676H176.884L181.588 16.9091H185.193L179.406 23.3523H178.767L176.398 25.892ZM173.585 30V12.5455H176.67V30H173.585ZM181.801 30L177.54 24.0426L179.619 21.8693L185.491 30H181.801ZM187.249 30V16.9091H190.335V30H187.249ZM188.8 15.0511C188.312 15.0511 187.891 14.8892 187.539 14.5653C187.187 14.2358 187.011 13.8409 187.011 13.3807C187.011 12.9148 187.187 12.5199 187.539 12.196C187.891 11.8665 188.312 11.7017 188.8 11.7017C189.295 11.7017 189.715 11.8665 190.062 12.196C190.414 12.5199 190.59 12.9148 190.59 13.3807C190.59 13.8409 190.414 14.2358 190.062 14.5653C189.715 14.8892 189.295 15.0511 188.8 15.0511ZM196.592 22.3295V30H193.507V16.9091H196.456V19.1335H196.609C196.911 18.4006 197.391 17.8182 198.05 17.3864C198.714 16.9545 199.536 16.7386 200.513 16.7386C201.416 16.7386 202.203 16.9318 202.874 17.3182C203.55 17.7045 204.072 18.2642 204.442 18.9972C204.817 19.7301 205.001 20.6193 204.996 21.6648V30H201.911V22.142C201.911 21.267 201.683 20.5824 201.229 20.0881C200.78 19.5937 200.158 19.3466 199.362 19.3466C198.822 19.3466 198.342 19.4659 197.922 19.7045C197.507 19.9375 197.18 20.2756 196.942 20.7188C196.709 21.1619 196.592 21.6989 196.592 22.3295ZM214.669 16.9091V19.2955H207.143V16.9091H214.669ZM209.001 13.7727H212.087V26.0625C212.087 26.4773 212.149 26.7955 212.274 27.017C212.405 27.233 212.575 27.3807 212.786 27.4602C212.996 27.5398 213.229 27.5795 213.484 27.5795C213.678 27.5795 213.854 27.5653 214.013 27.5369C214.178 27.5085 214.303 27.483 214.388 27.4602L214.908 29.8722C214.743 29.929 214.507 29.9915 214.2 30.0597C213.899 30.1278 213.53 30.1676 213.092 30.179C212.32 30.2017 211.624 30.0852 211.004 29.8295C210.385 29.5682 209.893 29.1648 209.53 28.6193C209.172 28.0739 208.996 27.392 209.001 26.5739V13.7727ZM222.904 30.2557C221.592 30.2557 220.458 29.983 219.504 29.4375C218.555 28.8864 217.825 28.108 217.313 27.1023C216.802 26.0909 216.546 24.9006 216.546 23.5312C216.546 22.1847 216.802 21.0028 217.313 19.9858C217.83 18.9631 218.552 18.1676 219.478 17.5994C220.404 17.0256 221.492 16.7386 222.742 16.7386C223.549 16.7386 224.31 16.8693 225.026 17.1307C225.748 17.3864 226.384 17.7841 226.935 18.3239C227.492 18.8636 227.93 19.5511 228.248 20.3864C228.566 21.2159 228.725 22.2045 228.725 23.3523V24.2983H217.995V22.2188H225.768C225.762 21.6278 225.634 21.1023 225.384 20.642C225.134 20.1761 224.785 19.8097 224.336 19.5426C223.893 19.2756 223.376 19.142 222.785 19.142C222.154 19.142 221.6 19.2955 221.123 19.6023C220.646 19.9034 220.273 20.3011 220.006 20.7955C219.745 21.2841 219.612 21.821 219.606 22.4062V24.2216C219.606 24.983 219.745 25.6364 220.023 26.1818C220.302 26.7216 220.691 27.1364 221.191 27.4261C221.691 27.7102 222.276 27.8523 222.947 27.8523C223.396 27.8523 223.802 27.7898 224.165 27.6648C224.529 27.5341 224.844 27.3438 225.112 27.0938C225.379 26.8438 225.58 26.5341 225.717 26.1648L228.597 26.4886C228.415 27.25 228.069 27.9148 227.558 28.483C227.052 29.0455 226.404 29.483 225.614 29.7955C224.825 30.1023 223.921 30.2557 222.904 30.2557ZM232.878 34.9091C232.457 34.9091 232.068 34.875 231.71 34.8068C231.358 34.7443 231.077 34.6705 230.866 34.5852L231.582 32.1818C232.031 32.3125 232.432 32.375 232.784 32.3693C233.136 32.3636 233.446 32.2528 233.713 32.0369C233.986 31.8267 234.216 31.4744 234.403 30.9801L234.668 30.2727L229.92 16.9091H233.193L236.21 26.7955H236.347L239.372 16.9091H242.653L237.412 31.5852C237.168 32.2784 236.844 32.8722 236.44 33.3665C236.037 33.8665 235.543 34.2472 234.957 34.5085C234.378 34.7756 233.685 34.9091 232.878 34.9091ZM250.138 30.2557C248.826 30.2557 247.692 29.983 246.738 29.4375C245.789 28.8864 245.059 28.108 244.548 27.1023C244.036 26.0909 243.781 24.9006 243.781 23.5312C243.781 22.1847 244.036 21.0028 244.548 19.9858C245.065 18.9631 245.786 18.1676 246.712 17.5994C247.638 17.0256 248.727 16.7386 249.977 16.7386C250.783 16.7386 251.545 16.8693 252.261 17.1307C252.982 17.3864 253.619 17.7841 254.17 18.3239C254.727 18.8636 255.164 19.5511 255.482 20.3864C255.8 21.2159 255.96 22.2045 255.96 23.3523V24.2983H245.229V22.2188H253.002C252.996 21.6278 252.869 21.1023 252.619 20.642C252.369 20.1761 252.019 19.8097 251.57 19.5426C251.127 19.2756 250.61 19.142 250.019 19.142C249.388 19.142 248.835 19.2955 248.357 19.6023C247.88 19.9034 247.508 20.3011 247.241 20.7955C246.979 21.2841 246.846 21.821 246.84 22.4062V24.2216C246.84 24.983 246.979 25.6364 247.258 26.1818C247.536 26.7216 247.925 27.1364 248.425 27.4261C248.925 27.7102 249.511 27.8523 250.181 27.8523C250.63 27.8523 251.036 27.7898 251.4 27.6648C251.763 27.5341 252.079 27.3438 252.346 27.0938C252.613 26.8438 252.815 26.5341 252.951 26.1648L255.832 26.4886C255.65 27.25 255.303 27.9148 254.792 28.483C254.286 29.0455 253.638 29.483 252.849 29.7955C252.059 30.1023 251.156 30.2557 250.138 30.2557Z" fill="#6C6C6C"/>
<path d="M172 34.7727H256.982V36.4091H172V34.7727Z" fill="#6C6C6C"/>
<path d="M7.81108 8.81818V35H2.27557V8.81818H7.81108ZM12.3654 35V8.81818H22.8484C24.7745 8.81818 26.381 9.10369 27.668 9.67472C28.9549 10.2457 29.9222 11.0384 30.57 12.0526C31.2177 13.0582 31.5415 14.2173 31.5415 15.5298C31.5415 16.5526 31.337 17.4517 30.9279 18.2273C30.5188 18.9943 29.9563 19.625 29.2404 20.1193C28.533 20.6051 27.7234 20.9503 26.8114 21.1548V21.4105C27.8086 21.4531 28.7418 21.7344 29.6112 22.2543C30.489 22.7741 31.2006 23.5028 31.7461 24.4403C32.2915 25.3693 32.5643 26.4773 32.5643 27.7642C32.5643 29.1534 32.2191 30.3935 31.5288 31.4844C30.8469 32.5668 29.837 33.4233 28.4989 34.054C27.1609 34.6847 25.5117 35 23.5515 35H12.3654ZM17.9009 30.4744H22.4137C23.9563 30.4744 25.0813 30.1804 25.7887 29.5923C26.4961 28.9957 26.8498 28.2031 26.8498 27.2145C26.8498 26.4901 26.6751 25.8509 26.3256 25.2969C25.9762 24.7429 25.4776 24.3082 24.8299 23.9929C24.1907 23.6776 23.4279 23.5199 22.5415 23.5199H17.9009V30.4744ZM17.9009 19.7741H22.0046C22.7631 19.7741 23.4364 19.642 24.0245 19.3778C24.6211 19.1051 25.0898 18.7216 25.4308 18.2273C25.7802 17.733 25.9549 17.1406 25.9549 16.4503C25.9549 15.5043 25.6183 14.7415 24.945 14.1619C24.2802 13.5824 23.3342 13.2926 22.1069 13.2926H17.9009V19.7741ZM36.1662 35V8.81818H46.4957C48.473 8.81818 50.1605 9.17187 51.5582 9.87926C52.9645 10.5781 54.0341 11.571 54.767 12.858C55.5085 14.1364 55.8793 15.6406 55.8793 17.3707C55.8793 19.1094 55.5043 20.6051 54.7543 21.858C54.0043 23.1023 52.9176 24.0568 51.4943 24.7216C50.0795 25.3864 48.3665 25.7188 46.3551 25.7188H39.4389V21.2699H45.4602C46.517 21.2699 47.3949 21.125 48.0938 20.8352C48.7926 20.5455 49.3125 20.1108 49.6534 19.5312C50.0028 18.9517 50.1776 18.2315 50.1776 17.3707C50.1776 16.5014 50.0028 15.7685 49.6534 15.1719C49.3125 14.5753 48.7884 14.1236 48.081 13.8168C47.3821 13.5014 46.5 13.3438 45.4347 13.3438H41.7017V35H36.1662ZM50.3054 23.0852L56.8125 35H50.7017L44.3352 23.0852H50.3054Z" fill="#1A1A1A"/>
<path d="M85.2756 35V8.81818H90.8111V19.6207H102.048V8.81818H107.571V35H102.048V24.1847H90.8111V35H85.2756ZM117.67 8.81818V35H112.135V8.81818H117.67ZM122.225 8.81818H129.051L136.262 26.4091H136.569L143.779 8.81818H150.605V35H145.236V17.9588H145.019L138.243 34.8722H134.587L127.811 17.8949H127.594V35H122.225V8.81818Z" fill="#1A1A1A"/>
<path d="M64.384 35.1818L70.9538 14.53H71.206L77.7891 35.1818H84.1598L74.7896 8H67.3836L58 35.1818H64.384Z" fill="#1A1A1A"/>
</svg>
